<?xml version="1.0" encoding="UTF-8" standalone="no"?>
<svg
   width="552"
   height="403"
   viewBox="0 0 552 403"
   version="1.1"
   id="svg25"
   sodipodi:docname="dom-class-hierarchy.svg"
   inkscape:version="1.4.2 (ebf0e94, 2025-05-08)"
   xmlns:inkscape="http://www.inkscape.org/namespaces/inkscape"
   xmlns:sodipodi="http://sodipodi.sourceforge.net/DTD/sodipodi-0.dtd"
   xmlns="http://www.w3.org/2000/svg"
   xmlns:svg="http://www.w3.org/2000/svg">
  <sodipodi:namedview
     id="namedview25"
     pagecolor="#ffffff"
     bordercolor="#000000"
     borderopacity="0.25"
     inkscape:showpageshadow="2"
     inkscape:pageopacity="0.0"
     inkscape:pagecheckerboard="0"
     inkscape:deskcolor="#d1d1d1"
     inkscape:zoom="2.0024814"
     inkscape:cx="276.15737"
     inkscape:cy="201.5"
     inkscape:window-width="1920"
     inkscape:window-height="1009"
     inkscape:window-x="-8"
     inkscape:window-y="-8"
     inkscape:window-maximized="1"
     inkscape:current-layer="dom-class-hierarchy.svg" />
  <defs
     id="defs1">
    <style
       id="style1">@import url(https://fonts.googleapis.com/css?family=Open+Sans:bold,italic,bolditalic%7CPT+Mono);@font-face{font-family:'PT Mono';font-weight:700;font-style:normal;src:local('PT MonoBold'),url(/font/PTMonoBold.woff2) format('woff2'),url(/font/PTMonoBold.woff) format('woff'),url(/font/PTMonoBold.ttf) format('truetype')}</style>
  </defs>
  <g
     id="dom"
     fill="none"
     fill-rule="evenodd"
     stroke="none"
     stroke-width="1">
    <g
       id="dom-class-hierarchy.svg">
      <path
         id="Rectangle-9"
         fill="#FBF2EC"
         stroke="#DBAF88"
         stroke-width="2"
         d="M181 6h118v28H181z" />
      <path
         id="Rectangle-8"
         fill="#FBF2EC"
         stroke="#DBAF88"
         stroke-width="2"
         d="M181 74h118v28H181z" />
      <text
         id="EventTarget"
         fill="#AF6E24"
         font-family="PTMono-Regular, PT Mono"
         font-size="12"
         font-weight="normal"><tspan
           x="200.9"
           y="24"
           id="tspan1">EventTarget</tspan></text>
      <text
         id="Node"
         fill="#AF6E24"
         font-family="PTMono-Regular, PT Mono"
         font-size="12"
         font-weight="normal"><tspan
           x="225.6"
           y="91"
           id="tspan2">Node </tspan></text>
      <path
         id="Line-2"
         fill="#C06334"
         fill-rule="nonzero"
         d="M240.5 39.5l7 14h-6v17h-2v-17h-6l7-14z" />
      <path
         id="Rectangle-8-Copy"
         fill="#FBF2EC"
         stroke="#DBAF88"
         stroke-width="2"
         d="M181 144h118v28H181z" />
      <text
         id="Element"
         fill="#AF6E24"
         font-family="PTMono-Regular, PT Mono"
         font-size="12"
         font-weight="normal"><tspan
           x="214.8"
           y="161"
           id="tspan3">Element </tspan></text>
      <path
         id="Line-2-Copy"
         fill="#C06334"
         fill-rule="nonzero"
         d="M240.5 109.5l7 14h-6v17h-2v-17h-6l7-14z" />
      <path
         id="Rectangle-8-Copy-4"
         fill="#FBF2EC"
         stroke="#DBAF88"
         stroke-width="2"
         d="M181 230h118v28H181z" />
      <text
         id="HTMLElement"
         fill="#AF6E24"
         font-family="PTMono-Regular, PT Mono"
         font-size="12"
         font-weight="normal"><tspan
           x="200.4"
           y="247"
           id="tspan4">HTMLElement </tspan></text>
      <path
         id="Line-2-Copy-4"
         fill="#C06334"
         fill-rule="nonzero"
         d="M240.5 195.5l7 14h-6v17h-2v-17h-6l7-14zM72.5 158.5l7.273 13.86-5.999.117L74 183.98l.02 1-2 .04-.02-1-.226-11.503-5.998.118L72.5 158.5z" />
      <path
         id="Rectangle-8-Copy-6"
         fill="#FBF2EC"
         stroke="#DBAF88"
         stroke-width="2"
         d="M171 300h138v28H171z" />
      <text
         id="HTMLBodyElement"
         fill="#AF6E24"
         font-family="PTMono-Regular, PT Mono"
         font-size="12"
         font-weight="normal"><tspan
           x="186"
           y="317"
           id="tspan5">HTMLBodyElement </tspan></text>
      <path
         id="Line-2-Copy-6"
         fill="#C06334"
         fill-rule="nonzero"
         d="M240.5 265.5l7 14h-6v17h-2v-17h-6l7-14z" />
      <path
         id="Rectangle-8-Copy-7"
         fill="#FBF2EC"
         stroke="#DBAF88"
         stroke-width="2"
         d="M1 300h138v28H1z" />
      <text
         id="HTMLInputElement"
         fill="#AF6E24"
         font-family="PTMono-Regular, PT Mono"
         font-size="12"
         font-weight="normal"><tspan
           x="13.4"
           y="317"
           id="tspan6">HTMLInputElement </tspan></text>
      <path
         id="Line-2-Copy-7"
         fill="#C06334"
         fill-rule="nonzero"
         d="M159 261l-6.753 14.12-3.685-4.736-29.448 22.905-.79.614-1.227-1.578.79-.614 29.448-22.906-3.684-4.735L159 261z" />
      <path
         id="Rectangle-8-Copy-8"
         fill="#FBF2EC"
         stroke="#DBAF88"
         stroke-width="2"
         d="M339 300h138v28H339z" />
      <text
         id="HTMLAnchorElement"
         fill="#AF6E24"
         font-family="PTMono-Regular, PT Mono"
         font-size="12"
         font-weight="normal"><tspan
           x="348.3"
           y="317"
           id="tspan7">HTMLAnchorElement </tspan></text>
      <path
         id="Line-2-Copy-8"
         fill="#C06334"
         fill-rule="nonzero"
         d="M312 261l15.305 3.28-3.749 4.684 29.069 23.255.78.625-1.249 1.562-.78-.625-29.069-23.254-3.748 4.685L312 261z" />
      <path
         id="Rectangle-8-Copy-2"
         fill="#FBF2EC"
         stroke="#DBAF88"
         stroke-width="2"
         d="M22 126h98v28H22z" />
      <text
         id="Document"
         fill="#AF6E24"
         font-family="PTMono-Regular, PT Mono"
         font-size="12"
         font-weight="normal"><tspan
           x="42.2"
           y="144"
           id="tspan8">Document </tspan></text>
      <path
         id="path8"
         fill="#FBF2EC"
         stroke="#DBAF88"
         stroke-width="2"
         d="M22 192h98v28H22z" />
      <text
         id="HTMLDocument"
         fill="#AF6E24"
         font-family="PTMono-Regular, PT Mono"
         font-size="12"
         font-weight="normal"><tspan
           x="27.8"
           y="210"
           id="tspan9">HTMLDocument </tspan></text>
      <path
         id="Line-2-Copy-2"
         fill="#C06334"
         fill-rule="nonzero"
         d="M168 90l-8.862 12.902-2.905-5.251-34.749 19.224-.875.484-.968-1.75.875-.484 34.749-19.224-2.904-5.25L168 90z" />
      <path
         id="Rectangle-8-Copy-3"
         fill="#FBF2EC"
         stroke="#DBAF88"
         stroke-width="2"
         d="M369 126h118v28H369z" />
      <text
         id="CharacterData"
         fill="#AF6E24"
         font-family="PTMono-Regular, PT Mono"
         font-size="12"
         font-weight="normal"><tspan
           x="381.2"
           y="144"
           id="tspan10">CharacterData </tspan></text>
      <path
         id="Line-2-Copy-3"
         fill="#C06334"
         fill-rule="nonzero"
         d="M314 91l15.648.379-2.813 5.299 36.634 19.439.883.468-.937 1.767-.884-.469-36.633-19.439-2.812 5.301L314 91zM458 159l13.93 7.138-4.836 3.552 9.712 13.218.592.806-1.612 1.184-.592-.806-9.712-13.218-4.834 3.553L458 159zM400 158l-1.376 15.592-5.11-3.146-8.662 14.078-.524.852-1.704-1.048.524-.852 8.663-14.078-5.11-3.143L400 158z" />
      <text
         id="Document-as-a-whole"
         fill="#c06334"
         font-family="PTMono-Regular, 'PT Mono'"
         font-size="12px"
         font-weight="normal"
         x="4"><tspan
           x="10.6"
           y="235"
           id="tspan11">Dokument jako celek</tspan></text>
      <text
         id="&lt;input-type=&quot;…&quot;&gt;"
         fill="#C06334"
         font-family="PTMono-Regular, PT Mono"
         font-size="12"
         font-weight="normal"><tspan
           x="13.4"
           y="341"
           id="tspan12">&lt;input type=&quot;…&quot;&gt;</tspan></text>
      <text
         id="&lt;body&gt;"
         fill="#C06334"
         font-family="PTMono-Regular, PT Mono"
         font-size="12"
         font-weight="normal"><tspan
           x="220.4"
           y="341"
           id="tspan13">&lt;body&gt;</tspan></text>
      <text
         id="&lt;a-href=&quot;…&quot;&gt;"
         fill="#C06334"
         font-family="PTMono-Regular, PT Mono"
         font-size="12"
         font-weight="normal"><tspan
           x="365.8"
           y="341"
           id="tspan14">&lt;a href=&quot;…&quot;&gt;</tspan></text>
      <text
         id="&lt;div&gt;...&lt;/div&gt;"
         font-family="PTMono-Regular, PT Mono"
         font-size="12"
         font-weight="normal"><tspan
           x="192.6"
           y="188"
           fill="#AF6E24"
           id="tspan15">&lt;</tspan><tspan
           x="199.8"
           y="188"
           fill="#C06334"
           id="tspan16">div</tspan><tspan
           x="221.4"
           y="188"
           fill="#AF6E24"
           id="tspan17">&gt;</tspan><tspan
           x="228.6"
           y="188"
           fill="#DBAF88"
           id="tspan18">...</tspan><tspan
           x="250.2"
           y="188"
           fill="#AF6E24"
           id="tspan19">&lt;/</tspan><tspan
           x="264.6"
           y="188"
           fill="#C06334"
           id="tspan20">div</tspan><tspan
           x="286.2"
           y="188"
           fill="#AF6E24"
           id="tspan21">&gt;</tspan></text>
      <path
         id="path21"
         fill="#FBF2EC"
         stroke="#DBAF88"
         stroke-width="2"
         d="M449 192h78v28h-78z" />
      <text
         id="Comment"
         fill="#AF6E24"
         font-family="PTMono-Regular, PT Mono"
         font-size="12"
         font-weight="normal"><tspan
           x="463.8"
           y="210"
           id="tspan22">Comment </tspan></text>
      <text
         id="&lt;!--comment--&gt;"
         fill="#c06334"
         font-family="PTMono-Regular, 'PT Mono'"
         font-size="12px"
         font-weight="normal"><tspan
           x="442.60001"
           y="237"
           id="tspan23">&lt;!--komentář--&gt;</tspan></text>
      <path
         id="path23"
         fill="#FBF2EC"
         stroke="#DBAF88"
         stroke-width="2"
         d="M342 192h78v28h-78z" />
      <text
         id="Text"
         fill="#AF6E24"
         font-family="PTMono-Regular, PT Mono"
         font-size="12"
         font-weight="normal"><tspan
           x="365.6"
           y="210"
           id="tspan24">Text </tspan></text>
      <text
         id="&quot;Hello&quot;"
         fill="#c06334"
         font-family="PTMono-Regular, 'PT Mono'"
         font-size="12px"
         font-weight="normal"
         x="7.9975214"><tspan
           sodipodi:role="line"
           x="364.79752"
           y="237"
           id="tspan29"><tspan
             x="364.79752"
             y="237"
             id="tspan25">&quot;Ahoj&quot;</tspan></tspan><tspan
           sodipodi:role="line"
           id="tspan27"
           x="364.79752"
           y="237"><tspan
             x="364.79752"
             y="237"
             id="tspan28">&quot;</tspan></tspan></text>
    </g>
  </g>
</svg>
